<?xml version="1.0" standalone="no"?>
<!DOCTYPE svg PUBLIC "-//W3C//DTD SVG 20010904//EN"
 "http://www.w3.org/TR/2001/REC-SVG-20010904/DTD/svg10.dtd">
<svg version="1.0" xmlns="http://www.w3.org/2000/svg"
 width="663.000000pt" height="169.000000pt" viewBox="0 0 663.000000 169.000000"
 preserveAspectRatio="xMidYMid meet">

<g transform="translate(0.000000,169.000000) scale(0.100000,-0.100000)"
fill="#000000" stroke="none">
<path d="M230 1290 l0 -40 130 0 c72 0 130 -2 130 -4 0 -2 -36 -77 -80 -166
-103 -211 -200 -440 -200 -474 l0 -26 195 0 195 0 0 40 0 40 -140 0 c-100 0
-140 3 -140 12 0 20 99 236 191 419 57 112 89 187 89 207 l0 32 -185 0 -185 0
0 -40z"/>
<path d="M730 955 l0 -375 45 0 45 0 2 173 3 172 123 3 122 3 0 -176 0 -175
45 0 45 0 0 376 0 375 -42 -3 -43 -3 -3 -157 -3 -158 -124 0 -125 0 0 160 0
160 -45 0 -45 0 0 -375z"/>
<path d="M2107 1253 c-8 -102 -26 -452 -29 -576 l-3 -97 48 0 47 0 0 123 c0
192 12 457 21 451 4 -2 42 -110 85 -239 l77 -235 38 0 c37 0 38 1 54 58 9 31
44 140 78 242 58 176 61 183 68 145 4 -22 10 -154 14 -292 l7 -253 44 0 44 0
0 84 c0 89 -18 449 -28 581 l-7 80 -49 0 -50 0 -53 -145 c-29 -80 -68 -191
-85 -247 -17 -57 -34 -103 -37 -103 -3 1 -28 67 -55 148 -26 80 -66 192 -88
249 l-40 103 -48 0 -47 0 -6 -77z"/>
<path d="M1477 1313 c-18 -32 -132 -450 -175 -646 l-20 -88 46 3 46 3 13 70
c23 128 7 115 141 115 l118 0 18 -95 18 -95 44 0 c36 0 44 3 44 18 0 30 -117
487 -155 610 l-36 112 -49 0 c-27 0 -51 -3 -53 -7z m98 -258 c20 -77 40 -155
45 -172 l8 -33 -99 0 c-54 0 -99 3 -99 6 0 9 39 162 67 262 14 51 29 89 33 85
4 -4 24 -71 45 -148z"/>
<path d="M2960 1149 c-66 -26 -106 -95 -122 -208 -19 -138 14 -280 77 -329 54
-43 154 -53 226 -24 24 9 26 14 20 44 -8 35 -8 36 -87 23 -79 -14 -143 52
-144 148 l0 37 131 0 131 0 -4 94 c-5 113 -32 177 -88 207 -37 20 -100 24
-140 8z m111 -99 c10 -14 21 -49 25 -77 l7 -53 -87 0 c-83 0 -86 1 -86 23 0
39 21 98 41 118 27 27 76 22 100 -11z"/>
<path d="M3375 1146 l-50 -11 0 -275 0 -275 45 0 45 0 3 240 c2 176 6 241 15
247 18 11 72 10 100 -3 45 -20 51 -50 57 -274 l5 -210 40 0 40 0 0 220 c0 212
-1 222 -24 269 -18 37 -34 53 -65 67 -47 21 -133 24 -211 5z"/>
<path d="M3895 1146 l-50 -11 0 -275 0 -275 45 0 45 0 3 240 c2 176 6 241 15
247 18 11 72 10 100 -3 45 -20 51 -50 57 -274 l5 -210 40 0 40 0 0 220 c0 212
-1 222 -24 269 -18 37 -34 53 -65 67 -47 21 -133 24 -211 5z"/>
<path d="M4400 1147 c-19 -7 -34 -15 -32 -19 1 -5 2 -16 2 -25 0 -37 14 -44
62 -34 89 20 138 -22 138 -117 l0 -38 -59 4 c-69 5 -138 -22 -165 -63 -45 -68
-37 -179 16 -233 49 -51 127 -64 242 -40 l58 11 -4 226 c-3 205 -5 229 -23
261 -39 67 -145 98 -235 67z m165 -402 l0 -90 -59 0 c-74 1 -96 23 -96 95 0
66 31 92 104 88 l51 -3 0 -90z"/>
<path d="M4900 1138 c-81 -42 -113 -116 -114 -263 -2 -201 70 -289 222 -271
l54 6 -7 -42 c-14 -88 -72 -124 -162 -100 -52 14 -60 10 -65 -32 -3 -27 1 -31
37 -42 84 -26 169 -13 218 33 62 59 62 59 65 395 l3 308 -28 11 c-15 6 -62 14
-103 16 -64 4 -81 1 -120 -19z m155 -253 l0 -190 -37 -9 c-89 -22 -137 41
-138 179 0 159 37 217 135 212 l40 -2 0 -190z"/>
<path d="M5360 1147 c-19 -7 -34 -15 -32 -19 1 -5 2 -16 2 -25 0 -37 14 -44
62 -34 89 20 138 -22 138 -117 l0 -38 -59 4 c-69 5 -138 -22 -165 -63 -45 -68
-37 -179 16 -233 49 -51 127 -64 242 -40 l58 11 -4 226 c-3 205 -5 229 -23
261 -39 67 -145 98 -235 67z m165 -402 l0 -90 -59 0 c-74 1 -96 23 -96 95 0
66 31 92 104 88 l51 -3 0 -90z"/>
<path d="M5820 1147 l-45 -12 0 -275 0 -275 45 0 45 0 3 240 c2 176 6 241 15
247 17 11 65 10 87 -2 40 -21 45 -48 50 -270 l5 -215 40 0 40 0 0 237 0 237
23 11 c29 13 68 13 92 0 40 -21 45 -48 50 -270 l5 -215 40 0 40 0 0 225 c0
221 0 226 -25 270 -15 28 -39 52 -60 62 -46 24 -126 23 -173 -1 -36 -18 -38
-18 -74 0 -43 22 -132 24 -203 6z"/>
</g>
</svg>
