<?xml version="1.0" standalone="no"?>
<!DOCTYPE svg PUBLIC "-//W3C//DTD SVG 20010904//EN"
 "http://www.w3.org/TR/2001/REC-SVG-20010904/DTD/svg10.dtd">
<svg version="1.0" xmlns="http://www.w3.org/2000/svg"
 width="160.000000pt" height="157.000000pt" viewBox="0 0 160.000000 157.000000"
 preserveAspectRatio="xMidYMid meet">

<g transform="translate(0.000000,157.000000) scale(0.100000,-0.100000)"
fill="#000000" stroke="none">
<path d="M505 1178 c-5 -16 -95 -470 -95 -480 0 -5 81 -8 180 -8 l180 0 0 -30
c0 -21 8 -35 25 -46 l26 -17 -31 -26 c-17 -14 -45 -48 -63 -75 -46 -71 -75
-89 -152 -94 -61 -4 -66 -3 -95 26 -37 37 -37 51 -3 113 22 39 26 52 17 66
-41 66 -127 -37 -110 -131 9 -48 64 -102 118 -117 105 -28 266 40 314 133 30
58 61 78 120 78 30 0 54 4 54 9 0 5 3 16 6 25 5 13 -3 16 -48 16 -57 0 -88 18
-88 52 0 13 19 16 113 20 130 4 152 14 195 87 37 63 39 180 4 256 -43 93 -111
146 -191 149 -55 1 -93 -20 -116 -64 -12 -22 -85 -348 -85 -377 0 -2 -61 -3
-135 -3 -74 0 -135 1 -135 3 0 5 79 399 85 425 5 20 2 22 -40 22 -28 0 -47 -5
-50 -12z m579 -78 c63 -56 92 -212 53 -287 -35 -66 -50 -73 -162 -73 l-102 0
34 173 c29 147 38 175 59 195 35 31 76 28 118 -8z"/>
</g>
</svg>
